<svg viewBox="0 0 24 24" fill="none" xmlns="http://www.w3.org/2000/svg">
<g clip-path="url(#clip0_80_80)">
<path d="M16.0866 16.7143L16.5928 16.2114C18.9351 16.2879 18.9711 16.2058 19.074 15.9651L19.7175 14.3985L19.7653 14.25L19.713 14.1201C19.6854 14.0514 19.6005 13.8467 18.138 12.4523V11.7188C19.8255 10.0931 19.7895 10.0099 19.6933 9.77194L19.0526 8.18906C18.9564 7.95169 18.9199 7.85888 16.5945 7.92244L16.0882 7.39931C16.1405 6.62875 16.1139 5.85486 16.0089 5.08969L15.9437 4.94175L14.2708 4.2105C14.0244 4.098 13.9378 4.0575 12.3583 5.77763L11.6484 5.76694C10.0222 4.03106 9.94518 4.06256 9.70162 4.161L8.14631 4.78988C7.90274 4.88831 7.81668 4.92319 7.91118 7.28569L7.40887 7.78631C5.06774 7.70981 5.03174 7.79306 4.92993 8.03269L4.28531 9.59981L4.23468 9.75L4.28756 9.8805C4.31512 9.948 4.39668 10.1505 5.86256 11.5466V12.2779C4.17506 13.9035 4.21162 13.9868 4.30837 14.2253L4.94849 15.8098C5.04637 16.0523 5.08124 16.1383 7.40606 16.0776L7.91231 16.6035C7.85983 17.3729 7.88565 18.1456 7.98937 18.9098L8.05462 19.0588L9.73818 19.7946C9.98287 19.8969 10.0678 19.9335 11.6428 18.2196L12.3527 18.2286C13.9811 19.9667 14.0644 19.9329 14.3023 19.8368L15.8542 19.2096C16.0995 19.1123 16.185 19.0779 16.0866 16.7143ZM9.41643 13.0446C9.22015 12.5316 9.17974 11.9721 9.30027 11.4362C9.42079 10.9004 9.69689 10.4121 10.0939 10.0325C10.4909 9.65301 10.9912 9.3992 11.532 9.30295C12.0727 9.20669 12.6298 9.27228 13.1334 9.49148C13.637 9.71068 14.0647 10.0737 14.3627 10.5351C14.6607 10.9964 14.8159 11.5355 14.8087 12.0847C14.8015 12.6339 14.6322 13.1687 14.3222 13.6221C14.0121 14.0755 13.5751 14.4272 13.0659 14.6331C12.3712 14.9047 11.5971 14.8901 10.9132 14.5924C10.2292 14.2947 9.69102 13.7381 9.41643 13.0446Z" fill="currentColor"/>
</g>
<defs>
<clipPath id="clip0_80_80">
<rect width="18" height="18" fill="white" transform="translate(3 3)"/>
</clipPath>
</defs>
</svg>
