<svg viewBox="0 0 24 24" fill="none" xmlns="http://www.w3.org/2000/svg">
<g clip-path="url(#clip0_80_80)">
<path d="M16.7363 17.3897L17.3231 16.8149C20.0377 16.9024 20.0795 16.8085 20.1988 16.5334L20.9446 14.743L21 14.5733L20.9394 14.4248C20.9074 14.3463 20.809 14.1123 19.1139 12.5187V11.6804C21.0698 9.82248 21.028 9.72733 20.9166 9.4554L20.174 7.64637C20.0625 7.37508 20.0201 7.26901 17.325 7.34165L16.7383 6.74379C16.7989 5.86312 16.7681 4.97867 16.6464 4.10417L16.5707 3.9351L14.6319 3.09937C14.3463 2.9708 14.2459 2.92451 12.4153 4.8904L11.5925 4.87819C9.70779 2.8943 9.61847 2.9303 9.33618 3.0428L7.53357 3.76153C7.25129 3.87403 7.15154 3.91389 7.26106 6.61393L6.67888 7.18608C3.96552 7.09865 3.9238 7.19379 3.80579 7.46765L3.05867 9.25868L3 9.43033L3.06128 9.57947C3.09323 9.65662 3.18776 9.88805 4.88671 11.4836V12.3194C2.93089 14.1773 2.97327 14.2724 3.0854 14.545L3.82731 16.3559C3.94075 16.633 3.98117 16.7314 6.67562 16.6619L7.26237 17.263C7.20155 18.1423 7.23148 19.0254 7.35168 19.8988L7.42731 20.0691L9.37856 20.91C9.66215 21.027 9.76059 21.0688 11.586 19.11L12.4088 19.1203C14.2961 21.1067 14.3926 21.0681 14.6684 20.9582L16.4671 20.2414C16.7513 20.1302 16.8504 20.091 16.7363 17.3897ZM9.00565 13.1956C8.77816 12.6093 8.73132 11.9699 8.87101 11.3575C9.01071 10.7451 9.33071 10.187 9.79086 9.75323C10.251 9.31948 10.8308 9.02941 11.4575 8.9194C12.0843 8.80939 12.73 8.88435 13.3136 9.13487C13.8973 9.38539 14.393 9.80031 14.7384 10.3276C15.0838 10.8548 15.2636 11.4709 15.2553 12.0986C15.2469 12.7263 15.0508 13.3375 14.6914 13.8556C14.3321 14.3738 13.8256 14.7757 13.2354 15.0111C12.4302 15.3215 11.5331 15.3048 10.7404 14.9646C9.94764 14.6243 9.3239 13.9883 9.00565 13.1956Z" fill="currentColor"/>
</g>
<defs>
<clipPath id="clip0_80_80">
<rect width="18" height="18" fill="white" transform="translate(3 3)"/>
</clipPath>
</defs>
</svg>
