<svg viewBox="0 0 24 24" fill="none" xmlns="http://www.w3.org/2000/svg">
<path d="M20 10.2031V20.1003C20 20.3389 19.8946 20.5677 19.7071 20.7365C19.5196 20.9052 19.2652 21 19 21H15.5C15.2348 21 14.9804 20.9052 14.7929 20.7365C14.6054 20.5677 14.5 20.3389 14.5 20.1003V15.6915C14.5 15.4529 14.3946 15.2241 14.2071 15.0553C14.0196 14.8866 13.7652 14.7918 13.5 14.7918H10.5C10.2348 14.7918 9.98043 14.8866 9.7929 15.0553C9.60536 15.2241 9.5 15.4529 9.5 15.6915V20.1003C9.5 20.3389 9.39465 20.5677 9.20711 20.7365C9.01958 20.9052 8.76522 21 8.50001 21H5.00001C4.7348 21 4.48045 20.9052 4.29291 20.7365C4.10537 20.5677 4.00002 20.3389 4.00002 20.1003V10.2031C3.99926 10.0847 4.02448 9.96734 4.07425 9.85771C4.12401 9.74809 4.19733 9.64839 4.29002 9.56432L11.29 3.26614C11.383 3.18181 11.4936 3.11487 11.6154 3.0692C11.7373 3.02352 11.868 3 12 3C12.132 3 12.2627 3.02352 12.3846 3.0692C12.5064 3.11487 12.617 3.18181 12.71 3.26614L19.71 9.56432C19.8027 9.64839 19.876 9.74809 19.9258 9.85771C19.9755 9.96734 20.0007 10.0847 20 10.2031Z" fill="currentColor"/>
</svg>
