<svg viewBox="0 0 64 17" fill="none" xmlns="http://www.w3.org/2000/svg">
<path d="M5.36 16.08C4.38667 16.08 3.51333 15.84 2.74 15.36C1.96667 14.8667 1.35333 14.2067 0.9 13.38C0.46 12.54 0.24 11.5933 0.24 10.54C0.24 9.48667 0.48 8.54 0.96 7.7C1.45333 6.86 2.11333 6.2 2.94 5.72C3.78 5.22667 4.72 4.98 5.76 4.98C6.8 4.98 7.73333 5.22667 8.56 5.72C9.38667 6.2 10.04 6.86 10.52 7.7C11.0133 8.54 11.26 9.48667 11.26 10.54H10.48C10.48 11.5933 10.2533 12.54 9.8 13.38C9.36 14.2067 8.75333 14.8667 7.98 15.36C7.20667 15.84 6.33333 16.08 5.36 16.08ZM5.76 14.28C6.44 14.28 7.04667 14.12 7.58 13.8C8.11333 13.4667 8.53333 13.02 8.84 12.46C9.14667 11.8867 9.3 11.2467 9.3 10.54C9.3 9.82 9.14667 9.18 8.84 8.62C8.53333 8.04667 8.11333 7.6 7.58 7.28C7.04667 6.94667 6.44 6.78 5.76 6.78C5.09333 6.78 4.48667 6.94667 3.94 7.28C3.40667 7.6 2.98 8.04667 2.66 8.62C2.35333 9.18 2.2 9.82 2.2 10.54C2.2 11.2467 2.35333 11.8867 2.66 12.46C2.98 13.02 3.40667 13.4667 3.94 13.8C4.48667 14.12 5.09333 14.28 5.76 14.28ZM10.24 16.02C9.94667 16.02 9.7 15.9267 9.5 15.74C9.31333 15.54 9.22 15.2933 9.22 15V11.94L9.6 9.82L11.26 10.54V15C11.26 15.2933 11.16 15.54 10.96 15.74C10.7733 15.9267 10.5333 16.02 10.24 16.02ZM17.8761 16.08C16.9428 16.08 16.0761 15.94 15.2761 15.66C14.4894 15.3667 13.8761 15 13.4361 14.56C13.2361 14.3467 13.1494 14.1067 13.1761 13.84C13.2161 13.56 13.3494 13.3333 13.5761 13.16C13.8428 12.9467 14.1028 12.86 14.3561 12.9C14.6228 12.9267 14.8494 13.04 15.0361 13.24C15.2628 13.4933 15.6228 13.7333 16.1161 13.96C16.6228 14.1733 17.1828 14.28 17.7961 14.28C18.5694 14.28 19.1561 14.1533 19.5561 13.9C19.9694 13.6467 20.1828 13.32 20.1961 12.92C20.2094 12.52 20.0161 12.1733 19.6161 11.88C19.2294 11.5867 18.5161 11.3467 17.4761 11.16C16.1294 10.8933 15.1494 10.4933 14.5361 9.96C13.9361 9.42667 13.6361 8.77333 13.6361 8C13.6361 7.32 13.8361 6.76 14.2361 6.32C14.6361 5.86667 15.1494 5.53333 15.7761 5.32C16.4028 5.09333 17.0561 4.98 17.7361 4.98C18.6161 4.98 19.3961 5.12 20.0761 5.4C20.7561 5.68 21.2961 6.06667 21.6961 6.56C21.8828 6.77333 21.9694 7 21.9561 7.24C21.9428 7.46667 21.8294 7.66 21.6161 7.82C21.4028 7.96667 21.1494 8.01333 20.8561 7.96C20.5628 7.90667 20.3161 7.78667 20.1161 7.6C19.7828 7.28 19.4228 7.06 19.0361 6.94C18.6494 6.82 18.2028 6.76 17.6961 6.76C17.1094 6.76 16.6094 6.86 16.1961 7.06C15.7961 7.26 15.5961 7.55333 15.5961 7.94C15.5961 8.18 15.6561 8.4 15.7761 8.6C15.9094 8.78667 16.1628 8.96 16.5361 9.12C16.9094 9.26667 17.4561 9.41333 18.1761 9.56C19.1761 9.76 19.9628 10.0133 20.5361 10.32C21.1228 10.6267 21.5428 10.9867 21.7961 11.4C22.0494 11.8 22.1761 12.2667 22.1761 12.8C22.1761 13.4133 22.0094 13.9667 21.6761 14.46C21.3561 14.9533 20.8761 15.3467 20.2361 15.64C19.6094 15.9333 18.8228 16.08 17.8761 16.08ZM28.3355 16.08C27.4021 16.08 26.5355 15.94 25.7355 15.66C24.9488 15.3667 24.3355 15 23.8955 14.56C23.6955 14.3467 23.6088 14.1067 23.6355 13.84C23.6755 13.56 23.8088 13.3333 24.0355 13.16C24.3021 12.9467 24.5621 12.86 24.8155 12.9C25.0821 12.9267 25.3088 13.04 25.4955 13.24C25.7221 13.4933 26.0821 13.7333 26.5755 13.96C27.0821 14.1733 27.6421 14.28 28.2555 14.28C29.0288 14.28 29.6155 14.1533 30.0155 13.9C30.4288 13.6467 30.6421 13.32 30.6555 12.92C30.6688 12.52 30.4755 12.1733 30.0755 11.88C29.6888 11.5867 28.9755 11.3467 27.9355 11.16C26.5888 10.8933 25.6088 10.4933 24.9955 9.96C24.3955 9.42667 24.0955 8.77333 24.0955 8C24.0955 7.32 24.2955 6.76 24.6955 6.32C25.0955 5.86667 25.6088 5.53333 26.2355 5.32C26.8621 5.09333 27.5155 4.98 28.1955 4.98C29.0755 4.98 29.8555 5.12 30.5355 5.4C31.2155 5.68 31.7555 6.06667 32.1555 6.56C32.3421 6.77333 32.4288 7 32.4155 7.24C32.4021 7.46667 32.2888 7.66 32.0755 7.82C31.8621 7.96667 31.6088 8.01333 31.3155 7.96C31.0221 7.90667 30.7755 7.78667 30.5755 7.6C30.2421 7.28 29.8821 7.06 29.4955 6.94C29.1088 6.82 28.6621 6.76 28.1555 6.76C27.5688 6.76 27.0688 6.86 26.6555 7.06C26.2555 7.26 26.0555 7.55333 26.0555 7.94C26.0555 8.18 26.1155 8.4 26.2355 8.6C26.3688 8.78667 26.6221 8.96 26.9955 9.12C27.3688 9.26667 27.9155 9.41333 28.6355 9.56C29.6355 9.76 30.4221 10.0133 30.9955 10.32C31.5821 10.6267 32.0021 10.9867 32.2555 11.4C32.5088 11.8 32.6355 12.2667 32.6355 12.8C32.6355 13.4133 32.4688 13.9667 32.1355 14.46C31.8155 14.9533 31.3355 15.3467 30.6955 15.64C30.0688 15.9333 29.2821 16.08 28.3355 16.08ZM36.0348 16C35.7415 16 35.4948 15.9067 35.2948 15.72C35.1082 15.52 35.0148 15.2733 35.0148 14.98V6.08C35.0148 5.77333 35.1082 5.52667 35.2948 5.34C35.4948 5.15333 35.7415 5.06 36.0348 5.06C36.3415 5.06 36.5882 5.15333 36.7748 5.34C36.9615 5.52667 37.0548 5.77333 37.0548 6.08V14.98C37.0548 15.2733 36.9615 15.52 36.7748 15.72C36.5882 15.9067 36.3415 16 36.0348 16ZM36.0348 3.28C35.6748 3.28 35.3615 3.15333 35.0948 2.9C34.8415 2.63333 34.7148 2.32 34.7148 1.96C34.7148 1.6 34.8415 1.29333 35.0948 1.04C35.3615 0.773333 35.6748 0.64 36.0348 0.64C36.3948 0.64 36.7015 0.773333 36.9548 1.04C37.2215 1.29333 37.3548 1.6 37.3548 1.96C37.3548 2.32 37.2215 2.63333 36.9548 2.9C36.7015 3.15333 36.3948 3.28 36.0348 3.28ZM45.41 16.08C44.37 16.08 43.43 15.84 42.59 15.36C41.7633 14.8667 41.1033 14.2 40.61 13.36C40.13 12.52 39.89 11.5733 39.89 10.52C39.89 9.46667 40.11 8.52667 40.55 7.7C41.0033 6.86 41.6167 6.2 42.39 5.72C43.1633 5.22667 44.0367 4.98 45.01 4.98C45.7967 4.98 46.5233 5.14667 47.19 5.48C47.8567 5.8 48.4167 6.24 48.87 6.8V1.4C48.87 1.09333 48.9633 0.846666 49.15 0.66C49.35 0.473333 49.5967 0.38 49.89 0.38C50.1967 0.38 50.4433 0.473333 50.63 0.66C50.8167 0.846666 50.91 1.09333 50.91 1.4V10.52C50.91 11.5733 50.6633 12.52 50.17 13.36C49.69 14.2 49.0367 14.8667 48.21 15.36C47.3833 15.84 46.45 16.08 45.41 16.08ZM45.41 14.28C46.09 14.28 46.6967 14.12 47.23 13.8C47.7633 13.4667 48.1833 13.0133 48.49 12.44C48.7967 11.8667 48.95 11.2267 48.95 10.52C48.95 9.8 48.7967 9.16 48.49 8.6C48.1833 8.04 47.7633 7.6 47.23 7.28C46.6967 6.94667 46.09 6.78 45.41 6.78C44.7433 6.78 44.1367 6.94667 43.59 7.28C43.0567 7.6 42.63 8.04 42.31 8.6C42.0033 9.16 41.85 9.8 41.85 10.52C41.85 11.2267 42.0033 11.8667 42.31 12.44C42.63 13.0133 43.0567 13.4667 43.59 13.8C44.1367 14.12 44.7433 14.28 45.41 14.28ZM59.2525 16.08C58.1458 16.08 57.1592 15.8467 56.2925 15.38C55.4392 14.9 54.7658 14.2467 54.2725 13.42C53.7925 12.58 53.5525 11.62 53.5525 10.54C53.5525 9.44667 53.7792 8.48667 54.2325 7.66C54.6992 6.82 55.3392 6.16667 56.1525 5.7C56.9658 5.22 57.8992 4.98 58.9525 4.98C59.9925 4.98 60.8858 5.21333 61.6325 5.68C62.3792 6.13333 62.9458 6.76667 63.3325 7.58C63.7325 8.38 63.9325 9.30667 63.9325 10.36C63.9325 10.6133 63.8458 10.8267 63.6725 11C63.4992 11.16 63.2792 11.24 63.0125 11.24H54.9525V9.64H62.9525L62.1325 10.2C62.1192 9.53333 61.9858 8.94 61.7325 8.42C61.4792 7.88667 61.1192 7.46667 60.6525 7.16C60.1858 6.85333 59.6192 6.7 58.9525 6.7C58.1925 6.7 57.5392 6.86667 56.9925 7.2C56.4592 7.53333 56.0525 7.99333 55.7725 8.58C55.4925 9.15333 55.3525 9.80667 55.3525 10.54C55.3525 11.2733 55.5192 11.9267 55.8525 12.5C56.1858 13.0733 56.6458 13.5267 57.2325 13.86C57.8192 14.1933 58.4925 14.36 59.2525 14.36C59.6658 14.36 60.0858 14.2867 60.5125 14.14C60.9525 13.98 61.3058 13.8 61.5725 13.6C61.7725 13.4533 61.9858 13.38 62.2125 13.38C62.4525 13.3667 62.6592 13.4333 62.8325 13.58C63.0592 13.78 63.1792 14 63.1925 14.24C63.2058 14.48 63.0992 14.6867 62.8725 14.86C62.4192 15.22 61.8525 15.5133 61.1725 15.74C60.5058 15.9667 59.8658 16.08 59.2525 16.08Z" fill="currentColor"/>
</svg>
