<svg viewBox="0 0 24 24" fill="none" xmlns="http://www.w3.org/2000/svg">
<path d="M20.9989 20.2496C20.9989 20.6603 20.6591 21 20.2485 21H3.75033C3.34085 21 3 20.6603 3 20.2496V3.75038C3 3.33975 3.33973 3 3.75033 3H20.2497C20.6591 3 21 3.33975 21 3.75038L20.9989 20.2496ZM11.2491 5.25C11.2491 5.0385 11.0849 4.87538 10.8745 4.87538H5.24986C5.03837 4.87538 4.87526 5.03962 4.87526 5.25V17.2504C4.87526 17.4607 5.0395 17.625 5.24986 17.625H10.8745C11.086 17.625 11.2491 17.4607 11.2491 17.2504V5.25ZM19.1236 5.25C19.1236 5.0385 18.9594 4.87538 18.749 4.87538H13.1244C12.9129 4.87538 12.7498 5.03962 12.7498 5.25V12.7504C12.7498 12.9607 12.9129 13.125 13.1244 13.125H18.749C18.9605 13.125 19.1236 12.9607 19.1236 12.7504V5.25Z" fill="currentColor"/>
</svg>
