<svg viewBox="0 0 24 24" fill="none" xmlns="http://www.w3.org/2000/svg">
<g clip-path="url(#clip0_71_49)">
<path d="M18.2223 3H7.7223C6.22127 3 5 4.2847 5 5.86369V18.1363C5 19.7153 6.22127 21 7.7223 21H18.2223C18.6519 21 19 20.6335 19 20.1817V3.81834C19 3.36646 18.6519 3 18.2223 3ZM9.00937 5.94543H14.9906C15.3129 5.94543 15.6045 6.08288 15.8155 6.30502C16.0266 6.5269 16.1573 6.83372 16.1573 7.17269C16.1573 7.85063 15.6349 8.39995 14.9906 8.39995H9.00937C8.68713 8.39995 8.39547 8.26274 8.18453 8.04061C7.97337 7.81847 7.8427 7.51166 7.8427 7.17269C7.8427 6.495 8.36513 5.94543 9.00937 5.94543ZM17.4444 19.3636H7.7223C7.079 19.3636 6.55563 18.813 6.55563 18.1363C6.55563 17.4596 7.079 16.909 7.7223 16.909H17.4444V19.3636Z" fill="currentColor"/>
</g>
<defs>
<clipPath id="clip0_71_49">
<rect width="14" height="18" fill="white" transform="translate(5 3)"/>
</clipPath>
</defs>
</svg>
