<svg viewBox="0 0 24 24" fill="none" xmlns="http://www.w3.org/2000/svg">
<g clip-path="url(#clip0_71_53)">
<path d="M17.6627 14.3002C17.3199 14.3002 16.9893 14.3522 16.678 14.4485L15.1798 11.8803C16.3007 10.9632 17.0167 9.5664 17.0167 8.00175C17.0169 5.23943 14.7859 3 12.0341 3C9.2822 3 7.05126 5.23943 7.05126 8.00175C7.05126 9.55718 7.75844 10.9466 8.86775 11.8639L7.33861 14.4536C7.02256 14.354 6.68612 14.3002 6.33712 14.3002C4.49417 14.3002 3 15.8 3 17.65C3 19.4999 4.49417 21 6.33734 21C7.91826 21 9.2423 19.8966 9.58704 18.415H14.413C14.7577 19.8964 16.0817 21 17.6627 21C19.5058 21 21 19.5002 21 17.65C21 15.7998 19.5058 14.3 17.6627 14.3V14.3002ZM10.1783 12.6449C10.7519 12.8759 11.378 13.0035 12.0338 13.0035C12.6897 13.0035 13.2983 12.8798 13.8651 12.6548L15.3629 15.2222C14.8998 15.6644 14.5631 16.2388 14.4127 16.885H9.58682C9.43776 16.2446 9.1058 15.6749 8.64921 15.2344L10.1783 12.6446V12.6449Z" fill="currentColor"/>
</g>
<defs>
<clipPath id="clip0_71_53">
<rect width="18" height="18" fill="white" transform="translate(3 3)"/>
</clipPath>
</defs>
</svg>
